<svg width="96" height="96" viewBox="0 0 96 96" fill="none" xmlns="http://www.w3.org/2000/svg">
<g clip-path="url(#clip0_6_8)">
<path fill-rule="evenodd" clip-rule="evenodd" d="M13.3826 9.00591L10.9418 0L0 1.34668L3.11419 13.0459L18.0118 68.5122L25.166 95.1933L36.1078 93.7624L28.9536 67.1656L25.166 53.1938L23.5669 47.1337L22.3043 42.3362L20.0318 33.8353L18.3485 27.7752L17.086 22.9777L28.0277 21.631L49.8271 18.8535L51.5946 18.601C53.1096 18.4327 54.5404 18.2643 55.803 20.2843L56.2238 20.9577L56.6446 21.5468C57.2338 22.5569 57.823 22.8094 59.0855 22.641L74.4881 20.7052L76.0873 26.7652L77.3498 31.5628L63.9672 33.2461C62.0313 33.4986 60.7688 32.9094 59.6747 31.3103L59.0013 30.2161C58.7488 29.8794 58.5805 29.6269 58.2438 29.4586C57.823 29.1219 57.2338 29.1219 56.4763 29.2061L30.9736 32.4044L33.2461 40.9895L55.0455 38.212L56.7288 37.9595C58.328 37.7911 59.6747 37.5386 61.0213 39.6428L61.4422 40.3162L61.7788 40.9053C62.4522 41.9153 63.0414 42.1678 64.3039 41.9995L79.6223 40.0637L81.2215 46.1237L82.5682 50.9213L69.1856 52.6046C67.1656 52.8571 65.9872 52.2679 64.893 50.6688L64.2197 49.5746C63.9672 49.1537 63.7147 48.9854 63.4622 48.7329C62.9572 48.4804 62.368 48.4804 61.6947 48.5646L36.1078 51.7629L39.3062 63.7147L51.9313 62.1155L57.0655 61.4422L64.388 60.5163H64.893C66.3239 60.348 66.8289 61.2738 66.9131 61.6947L67.2497 62.9572C67.5864 64.0514 68.1756 65.0614 70.5322 64.7247L84.7565 62.9572C92.9208 61.5263 94.9408 54.8771 93.0891 48.1437L82.2315 7.40673L68.0072 9.25841L64.0514 9.76341L55.803 10.7734C54.2038 10.9418 53.1096 10.2684 52.8571 9.17424L51.9313 5.89172C51.6788 4.88171 50.8371 4.29254 49.4062 4.46087L48.9854 4.54504L24.3244 7.65923L13.3826 9.00591Z" fill="#7C3AED"/>
</g>
<defs>
<clipPath id="clip0_6_8">
<rect width="96" height="96" fill="white"/>
</clipPath>
</defs>
</svg>
